<svg xmlns="http://www.w3.org/2000/svg" width="21.345" height="21.345" viewBox="0 0 21.345 21.345"><path d="M0,0H21.345V21.345H0Z" fill="none"/><path d="M10.8,3a9.787,9.787,0,0,1,9.622,8A9.786,9.786,0,0,1,1.181,11,9.786,9.786,0,0,1,10.8,3Zm0,14.23a8.008,8.008,0,0,0,7.806-6.224A8.009,8.009,0,0,0,3,11.005,8.009,8.009,0,0,0,10.8,17.23Zm0-2.223a4,4,0,1,1,4-4A4,4,0,0,1,10.8,15.007Zm0-1.779A2.223,2.223,0,1,0,8.58,11,2.223,2.223,0,0,0,10.8,13.228Z" transform="translate(-0.131 -0.332)" fill="#707070"/></svg>