<?xml version="1.0" encoding="UTF-8"?>
<svg width="18px" height="16px" viewBox="0 0 18 16" version="1.1" xmlns="http://www.w3.org/2000/svg" xmlns:xlink="http://www.w3.org/1999/xlink">
    <title>Shape</title>
    <g id="Page-1" stroke="none" stroke-width="1" fill="none" fill-rule="evenodd">
        <g id="heart-icon" transform="translate(-2.000000, -3.000000)" fill="#000000" fill-rule="nonzero">
            <path d="M10.673,4.582 C12.6953643,2.83173793 15.718912,2.9132796 17.644,4.77 C19.5455156,6.60258302 19.6343548,9.61867263 17.844,11.56 L10.672,18.56 L3.501,11.56 C1.71064522,9.61867263 1.79948439,6.60258302 3.701,4.77 C5.62675588,2.91300443 8.65098108,2.83146789 10.674,4.582 L10.673,4.582 Z M16.446,5.935 C15.1633812,4.69961182 13.1507327,4.64499332 11.803,5.809 L10.674,6.797 L9.544,5.81 C8.19538396,4.64381869 6.17990834,4.69890055 4.897,5.937 C3.64095015,7.14665626 3.56930865,9.13404465 4.735,10.431 L10.673,16.231 L16.611,10.431 C17.7797958,9.13274306 17.7076611,7.14129283 16.448,5.931 L16.446,5.935 Z" id="Shape"></path>
        </g>
    </g>
</svg>