<svg xmlns="http://www.w3.org/2000/svg" width="23.535" height="12.61" viewBox="0 0 23.535 12.61"><g transform="translate(0 0)"><path d="M232.99,364.425l-.724-.7c.035-.041.063-.08.1-.113q.575-.562,1.151-1.121c.257-.248.513-.5.78-.734a6.288,6.288,0,0,1,3.191-1.494,5.753,5.753,0,0,1,1.373-.071,4.859,4.859,0,0,1,3.843,2.365,4.959,4.959,0,0,1,.359,4.248,4.7,4.7,0,0,1-1.067,1.663,4.779,4.779,0,0,1-2.344,1.324,5.242,5.242,0,0,1-1.721.105,6.59,6.59,0,0,1-1.685-.381,6.1,6.1,0,0,1-2.11-1.309c-.737-.705-1.463-1.423-2.2-2.133-.55-.532-1.107-1.057-1.658-1.588-.343-.331-.678-.669-1.021-1s-.667-.656-1.018-.965a5.127,5.127,0,0,0-2.518-1.213,5.958,5.958,0,0,0-.656-.088,3.807,3.807,0,0,0-3.033,1.064,3.885,3.885,0,0,0-.055,5.484,3.64,3.64,0,0,0,2.63,1.113,5.516,5.516,0,0,0,1.711-.226,5.353,5.353,0,0,0,2.152-1.276c.538-.52,1.072-1.045,1.608-1.567.041-.04.087-.077.143-.127l.731.7c-.055.063-.1.117-.144.163-.456.446-.91.894-1.372,1.334a8.859,8.859,0,0,1-1.065.911,6.408,6.408,0,0,1-2.427,1.021,5.887,5.887,0,0,1-1.5.112,4.865,4.865,0,0,1-2.73-1.014,4.882,4.882,0,0,1,1.166-8.375,4.494,4.494,0,0,1,1.409-.334,5.639,5.639,0,0,1,1.069.017,7.136,7.136,0,0,1,1.248.251,6.338,6.338,0,0,1,1.865.925,7.078,7.078,0,0,1,.815.694c.377.369.751.741,1.13,1.107.575.555,1.154,1.106,1.729,1.661.318.307.631.62.949.927.586.568,1.166,1.143,1.763,1.7a5.182,5.182,0,0,0,2.731,1.335,5.406,5.406,0,0,0,1.5.035,3.4,3.4,0,0,0,1.363-.475,3.8,3.8,0,0,0,1.675-2.019,3.891,3.891,0,0,0,.207-1.556,3.647,3.647,0,0,0-.627-1.888,3.74,3.74,0,0,0-2.511-1.644,4.121,4.121,0,0,0-1.244-.027,5.751,5.751,0,0,0-1.432.343,5.371,5.371,0,0,0-1.806,1.173q-.775.758-1.553,1.513C233.117,364.321,233.063,364.362,232.99,364.425Z" transform="translate(-219.847 -358.127)" fill="#f9c22f"/><path d="M326.319,291.766c-.085-.083-.146-.141-.206-.2-.5-.5-.992-1.005-1.5-1.491a7.721,7.721,0,0,0-2.312-1.515,7.824,7.824,0,0,0-2.31-.6c-.329-.032-.662-.04-.993-.047-.391-.008-.782,0-1.174,0-.083,0-.167-.007-.256-.011-.136-.322-.231-.646-.335-.957.039-.068.094-.053.14-.053.714,0,1.429-.017,2.143,0a8.951,8.951,0,0,1,5.492,2.158c.382.337.736.706,1.1,1.061.066.064.133.127.207.2.064-.056.116-.1.164-.145.193-.192.387-.383.578-.577a8.971,8.971,0,0,1,2.561-1.828,9,9,0,0,1,3.9-.871c.544.007,1.088,0,1.633,0h.254a4.92,4.92,0,0,1-.332,1.01c-.058,0-.124.012-.19.012-.408,0-.816-.008-1.225,0-.39.011-.783.02-1.17.068a7.835,7.835,0,0,0-4.026,1.717c-.218.176-.423.369-.623.565-.443.435-.879.877-1.318,1.315C326.456,291.639,326.393,291.7,326.319,291.766Z" transform="translate(-314.502 -286.883)" fill="#f9c22f"/><path d="M584.38,631.939a1.437,1.437,0,0,1,.514-1.063,1.559,1.559,0,0,1,2.071.033,1.467,1.467,0,0,1,.01,2.155,1.556,1.556,0,0,1-2.146-.017A1.467,1.467,0,0,1,584.38,631.939Zm2.3.057a.748.748,0,0,0-.628-.729.74.74,0,1,0,.628.729Z" transform="translate(-574.17 -620.874)" fill="#f9c22f"/><path d="M761.127,495.093a1.1,1.1,0,0,1-.029,2.2,1.113,1.113,0,0,1-1.093-1.115A1.1,1.1,0,0,1,761.127,495.093Z" transform="translate(-744.876 -489.26)" fill="#f9c22f"/><path d="M446.038,495.118a1.1,1.1,0,0,1-.019,2.2,1.1,1.1,0,1,1,.019-2.2Z" transform="translate(-438.614 -489.286)" fill="#f9c22f"/></g></svg>