<svg xmlns="http://www.w3.org/2000/svg" width="34" height="44" viewBox="0 0 34 44"><g transform="translate(-1600 -55)"><path d="M654.926,137.456a51.56,51.56,0,0,1,8.092,0c.855.2,1.779.659,1.779,1.666a3.111,3.111,0,0,1-1.389,2.348,7.272,7.272,0,0,1-3.427,1.463,7.638,7.638,0,0,1-2.015,0,7.238,7.238,0,0,1-3.427-1.465,3.1,3.1,0,0,1-1.392-2.346C653.147,138.115,654.072,137.653,654.926,137.456ZM659.09,103a14.084,14.084,0,0,1,10.935,5.249,11.088,11.088,0,0,1,2.389,7.492v.852a7.772,7.772,0,0,0,2.125,5.7A6.725,6.725,0,0,1,676,126.912a7.231,7.231,0,0,1-1.725,4.756,9.076,9.076,0,0,1-5.8,2.826c-3.142.268-6.287.493-9.473.493a83.172,83.172,0,0,1-9.473-.493,9.066,9.066,0,0,1-5.8-2.826A7.233,7.233,0,0,1,642,126.912a6.736,6.736,0,0,1,1.461-4.621,7.592,7.592,0,0,0,2.127-5.7v-.852a11.256,11.256,0,0,1,2.566-7.717A14.146,14.146,0,0,1,658.912,103Z" transform="translate(958 -44)" fill="#fff"/><circle cx="7" cy="7" r="7" transform="translate(1620 55)" fill="#1c8e20"/></g></svg>