<svg xmlns="http://www.w3.org/2000/svg" width="6.106" height="12.265" viewBox="0 0 6.106 12.265"><path d="M3048.822,1100.376c-.17,0-.183.169-.183.256q0,2.342,0,4.684c0,.274-.005.628-.268.628-.848,0-.447.013-1.611.013-.276,0-.309.007-.309-.269q0-2.545,0-5.091c0-.255,0-.26-.254-.26h-1.03c-.3,0-.272-.027-.282-.276-.014-.364-.014-1.385-.014-1.683,0-.116.037-.153.152-.152.407.005.813,0,1.22.005.144,0,.192-.036.19-.186-.007-.577-.018-1.155.006-1.732a2.521,2.521,0,0,1,2.083-2.522,6.056,6.056,0,0,1,1.635-.086c.229.007.434.032.687.05.106.007.126.05.124.142-.014.577-.028,1.154-.036,1.731,0,.115-.053.133-.152.133-.483,0-.966-.039-1.448.01a.612.612,0,0,0-.63.629c-.052.57-.01,1.142-.024,1.713,0,.137.089.113.167.113h1.908c.228,0,.24,0,.217.232-.059.595-.163,1.169-.26,1.706-.035.189-.1.2-.254.2C3049.772,1100.375,3049.476,1100.375,3048.822,1100.376Z" transform="translate(-3044.87 -1093.693)" fill="#f9c22f"/></svg>