<svg xmlns="http://www.w3.org/2000/svg" width="40.195" height="21.536" viewBox="0 0 40.195 21.536"><g transform="translate(0)"><g transform="translate(0 0)"><path d="M242.294,367.43l-1.237-1.191c.059-.069.108-.136.166-.193.654-.64,1.308-1.28,1.967-1.915.439-.423.875-.85,1.333-1.253a10.739,10.739,0,0,1,5.45-2.552,9.833,9.833,0,0,1,2.345-.121,8.3,8.3,0,0,1,6.563,4.04,8.47,8.47,0,0,1,.613,7.255,8.029,8.029,0,0,1-1.822,2.84,8.162,8.162,0,0,1-4,2.262,8.952,8.952,0,0,1-2.94.18,11.251,11.251,0,0,1-2.878-.651,10.414,10.414,0,0,1-3.6-2.236c-1.26-1.2-2.5-2.431-3.751-3.642-.94-.908-1.891-1.805-2.831-2.712-.586-.564-1.159-1.142-1.744-1.707s-1.14-1.12-1.739-1.647a8.755,8.755,0,0,0-4.3-2.072,10.189,10.189,0,0,0-1.12-.151,6.5,6.5,0,0,0-5.181,1.816,6.634,6.634,0,0,0-.093,9.366,6.216,6.216,0,0,0,4.492,1.9,9.419,9.419,0,0,0,2.921-.387,9.143,9.143,0,0,0,3.675-2.178c.918-.889,1.831-1.784,2.746-2.676.071-.069.148-.132.244-.218l1.248,1.188c-.094.108-.164.2-.245.278-.779.761-1.555,1.526-2.343,2.277a15.142,15.142,0,0,1-1.818,1.557,10.943,10.943,0,0,1-4.145,1.743,10.05,10.05,0,0,1-2.556.191,8.308,8.308,0,0,1-4.663-1.731,8.338,8.338,0,0,1,1.991-14.3,7.676,7.676,0,0,1,2.406-.571,9.626,9.626,0,0,1,1.826.029,12.189,12.189,0,0,1,2.132.429,10.823,10.823,0,0,1,3.184,1.581,12.088,12.088,0,0,1,1.392,1.185c.644.629,1.283,1.265,1.93,1.891.982.948,1.971,1.889,2.953,2.837.544.524,1.078,1.058,1.621,1.583,1,.97,1.991,1.952,3.012,2.9a8.85,8.85,0,0,0,4.664,2.281,9.232,9.232,0,0,0,2.561.06,5.815,5.815,0,0,0,2.327-.811,6.494,6.494,0,0,0,2.861-3.448,6.646,6.646,0,0,0,.353-2.658,6.229,6.229,0,0,0-1.071-3.224,6.388,6.388,0,0,0-4.288-2.807,7.036,7.036,0,0,0-2.124-.046,9.821,9.821,0,0,0-2.446.586,9.173,9.173,0,0,0-3.084,2q-1.323,1.3-2.652,2.585C242.51,367.252,242.418,367.322,242.294,367.43Z" transform="translate(-219.847 -356.674)" fill="#a5a5a5"/><path d="M332.753,295.223c-.145-.142-.25-.242-.352-.343-.855-.85-1.693-1.717-2.568-2.546a13.187,13.187,0,0,0-3.948-2.587,13.358,13.358,0,0,0-3.945-1.024c-.563-.054-1.13-.069-1.7-.08-.668-.013-1.336,0-2,0-.143,0-.285-.012-.438-.018-.232-.55-.4-1.1-.572-1.635.067-.115.16-.091.24-.091,1.22,0,2.441-.029,3.659.005a15.287,15.287,0,0,1,9.38,3.686c.653.575,1.257,1.206,1.883,1.812.113.109.228.217.353.336.109-.1.2-.168.279-.248.33-.327.66-.654.986-.985a15.322,15.322,0,0,1,4.374-3.121,15.373,15.373,0,0,1,6.653-1.488c.93.012,1.859,0,2.788,0h.433a8.4,8.4,0,0,1-.567,1.725c-.1.007-.211.021-.325.021-.7,0-1.394-.014-2.091,0-.667.018-1.337.035-2,.116a13.38,13.38,0,0,0-6.876,2.932c-.372.3-.722.63-1.064.965-.757.742-1.5,1.5-2.252,2.246C332.986,295.006,332.879,295.1,332.753,295.223Z" transform="translate(-312.572 -286.883)" fill="#a5a5a5"/><path d="M584.38,632.959a2.454,2.454,0,0,1,.877-1.816,2.663,2.663,0,0,1,3.537.056,2.506,2.506,0,0,1,.016,3.681,2.658,2.658,0,0,1-3.665-.03A2.505,2.505,0,0,1,584.38,632.959Zm3.933.1a1.278,1.278,0,0,0-1.072-1.246,1.261,1.261,0,1,0-.536,2.464A1.309,1.309,0,0,0,588.313,633.057Z" transform="translate(-566.942 -614.062)" fill="#a5a5a5"/><path d="M761.921,495.094a1.876,1.876,0,0,1-.049,3.751,1.9,1.9,0,0,1-1.866-1.9A1.875,1.875,0,0,1,761.921,495.094Z" transform="translate(-734.167 -485.132)" fill="#a5a5a5"/><path d="M446.831,495.118a1.875,1.875,0,0,1-.032,3.75,1.875,1.875,0,1,1,.032-3.75Z" transform="translate(-434.151 -485.157)" fill="#a5a5a5"/></g></g></svg>