<?xml version="1.0" encoding="UTF-8"?>
<svg width="42px" height="22px" viewBox="0 0 42 22" version="1.1" xmlns="http://www.w3.org/2000/svg" xmlns:xlink="http://www.w3.org/1999/xlink">
    <title>logo-small</title>
    <g id="Page-1" stroke="none" stroke-width="1" fill="none" fill-rule="evenodd">
        <g id="logo-small" fill="#F9C22F" fill-rule="nonzero">
            <path d="M23.447,10.756 L22.21,9.565 C22.269,9.496 22.318,9.429 22.376,9.372 C23.03,8.732 23.684,8.092 24.343,7.457 C24.782,7.034 25.218,6.607 25.676,6.204 C27.2123207,4.85130507 29.1032416,3.96586838 31.126,3.652 C31.9000276,3.51814545 32.6873062,3.47752254 33.471,3.531 C36.1891661,3.71881677 38.6420477,5.22874238 40.034,7.571 C41.3203395,9.77365967 41.5455208,12.4387339 40.647,14.826 C40.247688,15.8910372 39.6266424,16.8590775 38.825,17.666 C37.7358182,18.7875252 36.3474518,19.5726464 34.825,19.928 C33.8616611,20.1499206 32.8682163,20.2107438 31.885,20.108 C30.9012477,20.0182848 29.9335947,19.7994028 29.007,19.457 C27.6664276,18.9662906 26.4410595,18.2052008 25.407,17.221 C24.147,16.021 22.907,14.79 21.656,13.579 C20.716,12.671 19.765,11.774 18.825,10.867 C18.239,10.303 17.666,9.725 17.081,9.16 C16.496,8.595 15.941,8.04 15.342,7.513 C14.1282395,6.4374003 12.6395757,5.72007206 11.042,5.441 C10.6717477,5.36998498 10.2978394,5.31957412 9.922,5.29 C8.01156025,5.10050996 6.1150732,5.76525046 4.741,7.106 C2.1349536,9.66921403 2.09336546,13.8575428 4.648,16.472 C5.82396188,17.6908477 7.44634998,18.377076 9.14,18.372 C10.1279398,18.3970369 11.1136649,18.2664393 12.061,17.985 C13.440799,17.5593815 14.700172,16.8130103 15.736,15.807 C16.654,14.918 17.567,14.023 18.482,13.131 C18.553,13.062 18.63,12.999 18.726,12.913 L19.974,14.101 C19.88,14.209 19.81,14.301 19.729,14.379 C18.95,15.14 18.174,15.905 17.386,16.656 C16.8220348,17.2221594 16.214136,17.7427857 15.568,18.213 C14.3218856,19.0746652 12.9104258,19.6681934 11.423,19.956 C10.582644,20.128497 9.72365992,20.1926855 8.867,20.147 C7.17236466,20.0597405 5.54508454,19.4556612 4.204,18.416 C1.85621041,16.5847939 0.663077093,13.6405989 1.07367432,10.6915581 C1.48427154,7.74251729 3.43628066,5.23622297 6.195,4.116 C6.9608699,3.79688616 7.77341115,3.60405115 8.601,3.545 C9.20921028,3.49677669 9.82062781,3.50648704 10.427,3.574 C11.1490294,3.65318996 11.8625352,3.79676125 12.559,4.003 C13.7002194,4.35090399 14.7760618,4.88510843 15.743,5.584 C16.2362458,5.94329781 16.7015761,6.3394303 17.135,6.769 C17.779,7.398 18.418,8.034 19.065,8.66 C20.047,9.608 21.036,10.549 22.018,11.497 C22.562,12.021 23.096,12.555 23.639,13.08 C24.639,14.05 25.63,15.032 26.651,15.98 C27.9426618,17.1895169 29.5672532,17.984048 31.315,18.261 C32.1617303,18.3999164 33.0236931,18.4201107 33.876,18.321 C34.7006978,18.2200141 35.4941793,17.9434719 36.203,17.51 C37.5355036,16.7364577 38.5495641,15.5143392 39.064,14.062 C39.3610298,13.2091847 39.4811406,12.3047812 39.417,11.404 C39.3656128,10.2508588 38.9948213,9.13467601 38.346,8.18 C37.3711125,6.68684115 35.8164727,5.66914664 34.058,5.373 C33.3564093,5.25024974 32.6402473,5.23473964 31.934,5.327 C31.0969203,5.41668857 30.2748469,5.61363666 29.488,5.913 C28.3355901,6.3647625 27.2865319,7.04508557 26.404,7.913 C25.522,8.77966667 24.638,9.64133333 23.752,10.498 C23.663,10.578 23.571,10.648 23.447,10.756 Z" id="Path"></path>
            <path d="M21.181,8.34 C21.036,8.198 20.931,8.098 20.829,7.997 C19.974,7.147 19.136,6.28 18.261,5.451 C17.1112956,4.35824639 15.7738758,3.48187734 14.313,2.864 C13.0581213,2.32288165 11.727638,1.97752934 10.368,1.84 C9.805,1.786 9.238,1.771 8.668,1.76 C8,1.747 7.332,1.76 6.668,1.76 C6.525,1.76 6.383,1.748 6.23,1.742 C5.998,1.192 5.83,0.642 5.658,0.107 C5.725,-0.008 5.818,0.016 5.898,0.016 C7.118,0.016 8.339,-0.013 9.557,0.021 C13.0104324,0.154056113 16.3168767,1.45336888 18.937,3.707 C19.59,4.282 20.194,4.913 20.82,5.519 C20.933,5.628 21.048,5.736 21.173,5.855 C21.282,5.755 21.373,5.687 21.452,5.607 C21.782,5.28 22.112,4.953 22.438,4.622 C23.7007744,3.33213765 25.1815399,2.27556039 26.812,1.501 C28.8903522,0.513326227 31.1639175,0.00482401694 33.465,0.013 C34.395,0.025 35.324,0.013 36.253,0.013 L36.686,0.013 C36.5598856,0.60679855 36.3697751,1.18517687 36.119,1.738 C36.019,1.745 35.908,1.759 35.794,1.759 C35.094,1.759 34.4,1.745 33.703,1.759 C33.036,1.777 32.366,1.794 31.703,1.875 C29.1789965,2.17924703 26.7939072,3.19627464 24.827,4.807 C24.455,5.107 24.105,5.437 23.763,5.772 C23.006,6.514 22.263,7.272 21.511,8.018 C21.414,8.123 21.307,8.217 21.181,8.34 Z" id="Path"></path>
            <path d="M18.438,18.897 C18.4566079,18.1939645 18.7759522,17.5326997 19.315,17.081 C20.3378862,16.2007852 21.8574917,16.2248446 22.852,17.137 C23.3674028,17.6091254 23.6622098,18.2750483 23.6652716,18.9739999 C23.668286,19.6729514 23.3792791,20.341412 22.868,20.818 C21.8336437,21.786533 20.2213628,21.7733356 19.203,20.788 C18.691278,20.2947383 18.4131833,19.6073173 18.438,18.897 Z M22.371,18.997 C22.3635692,18.3764845 21.9114525,17.8509832 21.299,17.751 C20.8554544,17.6464712 20.3900194,17.7893792 20.0815584,18.1248056 C19.7730975,18.460232 19.6696055,18.9359859 19.8108538,19.3692386 C19.9521021,19.8024914 20.3161131,20.1258308 20.763,20.215 C21.1430641,20.3045236 21.5432509,20.219704 21.8543184,19.9836951 C22.1653859,19.7476861 22.3548532,19.3851313 22.371,18.995 L22.371,18.997 Z" id="Shape"></path>
            <path d="M28.754,9.962 C29.7756388,9.99480688 30.5829805,10.8394597 30.5696289,11.8615379 C30.5562773,12.8836162 29.7271472,13.7068915 28.705,13.713 C27.6689606,13.6944574 26.8388341,12.8492053 26.839,11.813 C26.8452873,11.3128852 27.0511253,10.8360104 27.4107461,10.4884083 C27.7703668,10.1408062 28.2539604,9.95129052 28.754,9.962 L28.754,9.962 Z" id="Path"></path>
            <path d="M13.68,9.961 C14.7155339,9.96983656 15.5478366,10.8164661 15.539,11.852 C15.5301634,12.8875339 14.6835339,13.7198366 13.648,13.711 C12.6124661,13.7021634 11.7801634,12.8555339 11.789,11.82 C11.7978366,10.7844661 12.6444661,9.95216344 13.68,9.961 L13.68,9.961 Z" id="Path"></path>
        </g>
    </g>
</svg>