<svg xmlns="http://www.w3.org/2000/svg" width="202" height="29.603" viewBox="0 0 202 29.603"><g transform="translate(-157 -36.699)"><g transform="translate(29 -9)"><text transform="translate(199 68.301)" fill="#f9c22f" font-size="20" font-family="Poppins-Regular, Poppins"><tspan x="0" y="0">Fiction Limbo</tspan></text><g transform="translate(-91.847 -241.184)"><g transform="translate(219.847 286.883)"><path d="M250.7,370.145l-1.7-1.637c.082-.1.148-.187.228-.266.9-.879,1.8-1.76,2.7-2.632.6-.581,1.2-1.168,1.832-1.723a14.761,14.761,0,0,1,7.491-3.507,13.514,13.514,0,0,1,3.223-.167,11.406,11.406,0,0,1,9.022,5.553,11.642,11.642,0,0,1,.842,9.973,11.036,11.036,0,0,1-2.5,3.9,11.219,11.219,0,0,1-5.5,3.109A12.309,12.309,0,0,1,262.3,383a15.465,15.465,0,0,1-3.956-.895,14.314,14.314,0,0,1-4.953-3.073c-1.731-1.656-3.434-3.341-5.156-5.006-1.291-1.249-2.6-2.482-3.891-3.728-.8-.776-1.593-1.57-2.4-2.347s-1.567-1.54-2.391-2.265a12.035,12.035,0,0,0-5.91-2.848,13.981,13.981,0,0,0-1.539-.207,8.938,8.938,0,0,0-7.121,2.5A9.119,9.119,0,0,0,224.852,378a8.544,8.544,0,0,0,6.174,2.613,12.951,12.951,0,0,0,4.015-.531,12.567,12.567,0,0,0,5.052-2.994c1.262-1.222,2.516-2.453,3.775-3.679.1-.095.2-.181.335-.3l1.715,1.633c-.13.148-.226.273-.337.383-1.071,1.046-2.137,2.1-3.221,3.13a20.8,20.8,0,0,1-2.5,2.14,15.042,15.042,0,0,1-5.7,2.4,13.82,13.82,0,0,1-3.514.262,11.42,11.42,0,0,1-6.41-2.38,11.461,11.461,0,0,1,2.737-19.66,10.552,10.552,0,0,1,3.307-.784,13.236,13.236,0,0,1,2.51.04,16.755,16.755,0,0,1,2.93.589,14.877,14.877,0,0,1,4.377,2.172,16.609,16.609,0,0,1,1.913,1.629c.885.865,1.763,1.739,2.653,2.6,1.349,1.3,2.709,2.6,4.06,3.9.748.721,1.482,1.454,2.228,2.176,1.376,1.333,2.737,2.683,4.14,3.989a12.164,12.164,0,0,0,6.411,3.135,12.688,12.688,0,0,0,3.52.083,7.993,7.993,0,0,0,3.2-1.115,8.925,8.925,0,0,0,3.932-4.74,9.135,9.135,0,0,0,.486-3.653,8.561,8.561,0,0,0-1.472-4.431,8.78,8.78,0,0,0-5.895-3.858,9.672,9.672,0,0,0-2.92-.063,13.5,13.5,0,0,0-3.363.8,12.608,12.608,0,0,0-4.239,2.754q-1.819,1.78-3.646,3.553C251,369.9,250.872,370,250.7,370.145Z" transform="translate(-219.847 -355.361)" fill="#f9c22f"/><path d="M338.567,298.347c-.2-.195-.343-.332-.484-.472-1.175-1.168-2.328-2.36-3.53-3.5a18.127,18.127,0,0,0-5.427-3.556,18.362,18.362,0,0,0-5.423-1.407c-.773-.075-1.553-.095-2.33-.11-.918-.018-1.836,0-2.755-.005-.2,0-.392-.016-.6-.025-.319-.756-.543-1.516-.786-2.247.091-.158.22-.126.329-.126,1.677,0,3.355-.039,5.03.007a21.013,21.013,0,0,1,12.893,5.066c.9.79,1.727,1.658,2.588,2.49.155.15.313.3.485.462.15-.132.273-.231.384-.341.454-.45.907-.9,1.356-1.354a21.06,21.06,0,0,1,6.012-4.29,21.13,21.13,0,0,1,9.146-2.046c1.278.016,2.555,0,3.833,0h.6a11.548,11.548,0,0,1-.779,2.372c-.135.009-.291.028-.447.028-.958,0-1.917-.02-2.875.007-.917.025-1.838.048-2.746.16a18.392,18.392,0,0,0-9.452,4.031c-.512.412-.993.866-1.463,1.327-1.04,1.02-2.063,2.058-3.095,3.088C338.887,298.049,338.741,298.182,338.567,298.347Z" transform="translate(-310.827 -286.883)" fill="#f9c22f"/><path d="M584.38,633.881a3.373,3.373,0,0,1,1.206-2.5,3.66,3.66,0,0,1,4.862.077,3.444,3.444,0,0,1,.022,5.059,3.653,3.653,0,0,1-5.037-.041A3.444,3.444,0,0,1,584.38,633.881Zm5.406.133a1.757,1.757,0,0,0-1.474-1.712,1.734,1.734,0,1,0-.736,3.387A1.8,1.8,0,0,0,589.785,634.015Z" transform="translate(-560.411 -607.905)" fill="#f9c22f"/><path d="M762.639,495.095a2.578,2.578,0,0,1-.067,5.156,2.613,2.613,0,0,1-2.565-2.617A2.578,2.578,0,0,1,762.639,495.095Z" transform="translate(-724.489 -481.402)" fill="#f9c22f"/><path d="M447.548,495.118a2.577,2.577,0,0,1-.044,5.154,2.577,2.577,0,1,1,.044-5.154Z" transform="translate(-430.119 -481.426)" fill="#f9c22f"/></g></g></g></g></svg>