<svg xmlns="http://www.w3.org/2000/svg" width="10.002" height="12.793" viewBox="0 0 10.002 12.793"><path d="M4538.125,1099.816a8.772,8.772,0,0,1-1.976,4.395,6.225,6.225,0,0,1-.007-3.161c.194-.911.43-1.814.667-2.715a3.1,3.1,0,0,0,.1-1.634,2.093,2.093,0,0,1,.319-1.832,1.181,1.181,0,0,1,1.47-.5,1.031,1.031,0,0,1,.571,1.277c-.139.676-.355,1.336-.537,2a1.2,1.2,0,0,0,.319,1.45,1.384,1.384,0,0,0,1.579.07,2.4,2.4,0,0,0,1.128-1.209,5.516,5.516,0,0,0,.543-1.772c.114-1.259,0-2.345-1.44-3.1a3.737,3.737,0,0,0-4.024.273,3.165,3.165,0,0,0-1.417,3.255,1.673,1.673,0,0,0,.485,1.056c.127.108.259.219.2.406a1.406,1.406,0,0,1-.346.543c-.332.246-.783-.079-1.037-.32a3.707,3.707,0,0,1-.455-3.976,5.374,5.374,0,0,1,8.726-1.181,4.879,4.879,0,0,1,.579,4.667,3.83,3.83,0,0,1-3.236,2.817A2.656,2.656,0,0,1,4538.125,1099.816Z" transform="translate(-4533.901 -1091.418)" fill="#f9c22f"/></svg>