<svg xmlns="http://www.w3.org/2000/svg" width="13.318" height="10.908" viewBox="0 0 13.318 10.908"><path d="M3450.561,1125.069a6.56,6.56,0,0,0,.955,0,5.361,5.361,0,0,0,1.038-.185,5.57,5.57,0,0,0,1.565-.711,2.711,2.711,0,0,0,.364-.274,2.8,2.8,0,0,1-1.585-.547,2.716,2.716,0,0,1-.973-1.36,2.728,2.728,0,0,0,1.181-.041,3.9,3.9,0,0,1-1.787-1.35,2.763,2.763,0,0,1-.368-1.344c0-.07.039-.033.06-.021a2.723,2.723,0,0,0,.856.282c.1.016.2.016.306.025a2.823,2.823,0,0,1-.846-3.682c.171.187.324.36.484.526a7.866,7.866,0,0,0,3.554,2.095,7.811,7.811,0,0,0,1.557.259c.1.006.111-.031.1-.115a2.679,2.679,0,0,1,.924-2.612,2.613,2.613,0,0,1,1.961-.639,2.663,2.663,0,0,1,1.759.8.154.154,0,0,0,.163.039,5.463,5.463,0,0,0,1.5-.567c.034-.019.07-.033.136-.064a2.824,2.824,0,0,1-1.149,1.482,4.928,4.928,0,0,0,1.491-.385,1.457,1.457,0,0,1-.234.345,5.162,5.162,0,0,1-1,.973.207.207,0,0,0-.094.2,7.641,7.641,0,0,1-.264,2.235,8.2,8.2,0,0,1-1.418,2.889,7.5,7.5,0,0,1-1.765,1.669,7.218,7.218,0,0,1-1.672.84,8.124,8.124,0,0,1-1.691.39,8.456,8.456,0,0,1-1.65.036,7.542,7.542,0,0,1-2.039-.442,7.918,7.918,0,0,1-1.439-.7.39.39,0,0,1-.048-.04A.078.078,0,0,1,3450.561,1125.069Z" transform="translate(-3450.488 -1115.368)" fill="#f9c22f"/></svg>