<?xml version="1.0" encoding="UTF-8"?>
<svg xmlns="http://www.w3.org/2000/svg" xmlns:xlink="http://www.w3.org/1999/xlink" viewBox="0 0 50 50" width="50px" height="50px">
<g id="surface14080098">
<path style=" stroke:none;fill-rule:nonzero;fill:rgb(100%,100%,100%);fill-opacity:1;" d="M 25 2 C 24.277344 1.988281 23.609375 2.367188 23.246094 2.992188 C 22.878906 3.613281 22.878906 4.386719 23.246094 5.007812 C 23.609375 5.632812 24.277344 6.011719 25 6 C 35.515625 6 44 14.484375 44 25 C 44 35.515625 35.515625 44 25 44 C 14.484375 44 6 35.515625 6 25 C 6 19.523438 8.308594 14.609375 12 11.144531 L 12 15 C 11.988281 15.722656 12.367188 16.390625 12.992188 16.753906 C 13.613281 17.121094 14.386719 17.121094 15.007812 16.753906 C 15.632812 16.390625 16.011719 15.722656 16 15 L 16 4 L 5 4 C 4.277344 3.988281 3.609375 4.367188 3.246094 4.992188 C 2.878906 5.613281 2.878906 6.386719 3.246094 7.007812 C 3.609375 7.632812 4.277344 8.011719 5 8 L 9.527344 8 C 4.90625 12.210938 2 18.273438 2 25 C 2 37.679688 12.320312 48 25 48 C 37.679688 48 48 37.679688 48 25 C 48 12.320312 37.679688 2 25 2 Z M 25 2 "/>
</g>
</svg>
