<svg xmlns="http://www.w3.org/2000/svg" width="25" height="23.752" viewBox="0 0 25 23.752"><path d="M6.167,5.057A12.485,12.485,0,0,1,10.594,2.5a4.99,4.99,0,0,0,3.9,1.877A4.99,4.99,0,0,0,18.4,2.5a12.485,12.485,0,0,1,4.427,2.56,5,5,0,0,0,3.906,6.76,12.552,12.552,0,0,1,0,5.112,5,5,0,0,0-3.906,6.761A12.485,12.485,0,0,1,18.4,26.248a5,5,0,0,0-7.809,0,12.486,12.486,0,0,1-4.427-2.558,5,5,0,0,0-3.906-6.76,12.552,12.552,0,0,1,0-5.113,5,5,0,0,0,3.906-6.76ZM16.373,17.62a3.749,3.749,0,1,0-5.122-1.372,3.749,3.749,0,0,0,5.122,1.372Z" transform="translate(-1.998 -2.497)" fill="#cecece"/></svg>